/* XPM */
static char *rlvm_icon_48[] = {
/* columns rows colors chars-per-pixel */
"48 48 208 2 ",
"   c #3C3B3A",
".  c #233F4E",
"X  c #224252",
"o  c #2D4D5E",
"O  c #24495B",
"+  c #3C4B53",
"@  c #344C58",
"#  c #24404F",
"$  c #1C5675",
"%  c #155170",
"&  c #1E5069",
"*  c #254E64",
"=  c #284E61",
"-  c #295267",
";  c #265975",
":  c #335C71",
">  c #325669",
",  c #39667D",
"<  c #2F657F",
"1  c #434A4D",
"2  c #49494A",
"3  c #555756",
"4  c #434E54",
"5  c #605F5F",
"6  c #405965",
"7  c #446C7D",
"8  c #576A71",
"9  c #676766",
"0  c #7D7C7A",
"q  c #DCAE0D",
"w  c #D2AC1A",
"e  c #E5BC0B",
"r  c #E1B709",
"t  c #E5BC12",
"y  c #CDA934",
"u  c #D1B238",
"i  c #CFAE2A",
"p  c #E3BD2A",
"a  c #EAC50C",
"s  c #F3D30F",
"d  c #EAC614",
"f  c #EDCB14",
"g  c #E8C619",
"h  c #EDCE1B",
"j  c #E5C01B",
"k  c #EED01D",
"l  c #F1D31C",
"z  c #F5DA1D",
"x  c #F4D513",
"c  c #F1CF11",
"v  c #EDCE24",
"b  c #E8C62B",
"n  c #EDD224",
"m  c #EED629",
"M  c #F5DB23",
"N  c #F2DA2D",
"B  c #F4D924",
"V  c #EAC934",
"C  c #F3DC33",
"Z  c #F4DC3D",
"A  c #F2D639",
"S  c #EFD139",
"D  c #FDE529",
"F  c #FBE428",
"G  c #F5E334",
"H  c #FEEA32",
"J  c #FBEC3C",
"K  c #F8E637",
"L  c #AF9D5C",
"P  c #83817C",
"I  c #B4A368",
"U  c #B3A578",
"Y  c #D7B946",
"T  c #C9AF53",
"R  c #CAB567",
"E  c #C5B270",
"W  c #F3DA46",
"Q  c #EBCE48",
"!  c #FCEE44",
"~  c #FAE54B",
"^  c #F6E344",
"/  c #FCF144",
"(  c #FDF44C",
")  c #FAEC54",
"_  c #F4E65B",
"`  c #FDF553",
"'  c #FDF558",
"]  c #E8D06B",
"[  c #FDF463",
"{  c #FEFB63",
"}  c #FCF36C",
"|  c #FDF574",
" . c #FCF47C",
".. c #FEF97C",
"X. c #FEF877",
"o. c #F8EA71",
"O. c #1A5D80",
"+. c #27678A",
"@. c #366B87",
"#. c #3A718C",
"$. c #266C91",
"%. c #2D7092",
"&. c #3A7898",
"*. c #446D82",
"=. c #4E7282",
"-. c #567582",
";. c #467A94",
":. c #3F82A5",
">. c #4A819D",
",. c #56839B",
"<. c #798484",
"1. c #708C92",
"2. c #4A87A6",
"3. c #5A8AA3",
"4. c #5288A3",
"5. c #5B91AD",
"6. c #4C8FB2",
"7. c #5996B5",
"8. c #648EA5",
"9. c #6292AB",
"0. c #6D9BB3",
"q. c #6DA2BD",
"w. c #3393C6",
"e. c #6DA7C5",
"r. c #79B4D2",
"t. c #77ADC8",
"y. c #858684",
"u. c #94928C",
"i. c #879493",
"p. c #9B9C99",
"a. c #949794",
"s. c #8D928D",
"d. c #A09F9E",
"f. c #A4A39D",
"g. c #A9A69C",
"h. c #BCB494",
"j. c #B9AB81",
"k. c #99A7A2",
"l. c #ADAAA2",
"z. c #A6A7A3",
"x. c #B1AEA5",
"c. c #BAB6AA",
"v. c #BCB9AB",
"b. c #B6B2A7",
"n. c #BDBBB1",
"m. c #B7B6B2",
"M. c #A4B0A6",
"N. c #CDBF8F",
"B. c #C2BCB2",
"V. c #BFC1B3",
"C. c #D8C897",
"Z. c #F1DE80",
"A. c #F7EA82",
"S. c #FEFA83",
"D. c #FEFA8A",
"F. c #FDF683",
"G. c #FEFC93",
"H. c #FFFC9C",
"J. c #FBF198",
"K. c #F5E697",
"L. c #D3CAAD",
"P. c #C4C2B5",
"I. c #CAC5B6",
"U. c #C5C3B9",
"Y. c #CAC6BA",
"T. c #CDC9BC",
"R. c #D2CDBC",
"E. c #D6D1BD",
"W. c #DAD4BD",
"Q. c #CFC5A4",
"!. c #E2D9B8",
"~. c #F7EBA5",
"^. c #FEFCA3",
"/. c #FEFCAC",
"(. c #FBF4A6",
"). c #FFFEB4",
"_. c #FFFEBA",
"`. c #CECBC1",
"'. c #D1CEC2",
"]. c #D6D2C3",
"[. c #DBD5C2",
"{. c #DFD9C4",
"}. c #DBD7C9",
"|. c #E3DCC5",
" X c #E4DEC9",
".X c #E7E0CB",
"XX c #EBE4CD",
"oX c #E9E2C9",
"OX c #F1E8CE",
"+X c #FFFFC4",
"@X c #FFFDCC",
"#X c #EBE5D1",
"$X c #EEE8D4",
"%X c #E6E1D0",
"&X c #F5EDD4",
"*X c #F4EEDA",
"=X c #FFFFD4",
"-X c #F7F1DB",
";X c #F9F2DC",
":X c #FFFFD9",
">X c #F7F0D6",
",X c #FAF5E3",
"<X c #FFFDE3",
"1X c #FBF7E9",
"2X c #FBF8EC",
"3X c #F7F1E1",
"4X c #FDFBF2",
"5X c None",
/* pixels */
"5X5X5X5X5X5X5X5X5X5X5X5X5X5X5X5X5X5X5X5X5X5X5Xl h 5X5X5X5X5X5X5X5X5X5X5X5X5X5X5X5X5X5X5X5X5X5X5X",
"5X5X5X5X5X5X5X5X5X5X5X5X5X5X5X5X5X5X5X5X5X5Xd /.[ 5X5X5X5X5X5X5X5X5X5X5X5X5X5X5X5X5X5X5X5X5X5X5X",
"5X5X5X5X5X5X5X5X5X5X5X5X5X5X5X5X5X5X5X5X5X5X_ :X+XC 5X5X5X5X5X5X5X5X5X5X5X5X5X5X5X5X5X5X5X5X5X5X",
"5X5X5X5X5X5X5X5X5X5X5X5X5X5X5X5X5X5X5X5X5Xe ).:X=Xo.5X5X5X5X5X5X5X5X5X5X5X5X5X5X5X5X5X5X5X5X5X5X",
"5X5X5X5X5X5X5X5X5X5X5X5X5X5X5X5X5X5X5X5X5Xn =X:X:X_.m 5X5X5X5X5X5X5X5X5X5X5X5X5X5X5X5X5X5X5X5X5X",
"5X5X5X5X5X5X5X5X5X5X5X5X5X5X5X5X5X5X5X5X5X .:X:X:X:X_ 5X5X5X5X5X5X5X5X5X5X5X5X5X5X5X5X5X5X5X5X5X",
"5X5X5X5X5X5X5X5X5X5X5X5X5X5X5X5X5X5X5X5Xd _.:X:X:X:X/.n 5X5X5X5X5X5X5X5X5X5X5X5X5X5X5X5X5X5X5X5X",
"5X5X5X5X5X5X5X5X5X5X5X5X5X5X5X5X5X5X5X5X^ =X:X=X:X:X:X~ 5X5X5X5X5X5X5X5X5X5X5X5X5X5X5X5X5X5X5X5X",
"5X5X5X5X5X5X5X5X5X5X5X5X5X5X5X5X5X5X5XN F.:X:X:X:X:X=X^.N g e 5X5X5X5X5X5X5X5X5X5X5X5X5X5X5X5X5X",
"5X5X5X5X5X5X5X5X5X5X5X5X5X5X5X5X5Xl G ) @X:X:X=X@X@X+X_.G...X.} { [ ' ` J g 5X5X5X5X5X5X5X5X5X5X",
"5X5X5X5X5X5X5X5X5X5X5X5Xa l N )  .^._.=X@X@X+X_._.)./.(.H.G.D.S...X.} } ' Z 5X5X5X5X5X5X5X5X5X5X",
"5X5X5X5X5X5X5X5X5Xn ~ | ^._.=X=X@X+X+X+X_._._./.^.^.H.D.F...| } _ K N M n q 5X5X5X5X5X5X5X5X5X5X",
"5X5X5X5X5X5X5X5X5XA /._.=X+X_._._._._././.^.H.G.D.D.S. .} _ W N m n M z q 5X5X5X5X5X5X5X5X5X5X5X",
"5X5X5X5X5X5X5X5X5X5XK /.+X_.).)././.^.H.H.D.D... .| [ ) K C m n n M z q 5X5X5X5X5X5X5X5X5X5X5X5X",
"5X5X5X5X5X5X5X5X5X5X5Xv (.+X^.G.H.H.G.D.S.| } [ ` ! J G N m m n M z q 5X5X5X5X5X5X5X5X5X5X5X5X5X",
"5X5X5X5X5X5X5X5X5X5X5X5Xg J.:X_.{ { { ' ' ( J J H H D G m n k B z q 5X5X5X5X5X5X5X5X5X5X5X5X5X5X",
"5X5X5X5X5X5X5X5X5X5X5X5X5Xa A.2X_.' ` ( / J H H D D D M n k M z t 5X5X5X5X5X5X5X5X5X5X5X5X5X5X5X",
"5X5X5X5X5X5X5X5X5X5X5X5X5X5X5XA.4XD.( ( / J H D D D F M k k z x 5X5X5X5X5X5X5X5X5X5X5X5X5X5X5X5X",
"5X5X5X5X5X5X5X5X5X5X5X5X5X5X5Xg <X+X( J J H H D D F F M h f x c 5X5X5X5X5X5X5X5X5X5X5X5X5X5X5X5X",
"5X5X5X5X5X5X5X5X5X5X5X5X5X5X5X5X@X/./ J K G N B F F F z h a x c 5X5X5X5X5X5X5X5X5X5X5X5X5X5X5X5X",
"5X5X5X5X5X5X5X5X5X5X5X5X5X5X5XV <XF.K G C N n n l B M z f a c c 5X5X5X5X5X5X5X5X5X5X5X5X5X5X5X5X",
"5X5X5X5X5X5X5X5X5X5X5X5X5X5X5XQ :X) C N m n v m v f l k f e c x w 5X5X5X5X5X5X5X5X5X5X5X5X5X5X5X",
"5X5X5X5X5X5X5X5X5X5Xj.Q.W.!.I.] @XC N m n v W W W S g d a e a s i @.5X5X5X5X5X5X5X5X5X5X5X5X5X5X",
"5X5X5X5X5X5X5X5XU !.;X&X&XXXI.o.~.m n v C ~ ^ C A W W b e r a s t f.-.@.5X5X5X5X5X5X5X5X5X5X5X5X",
"5X5X5X5X5X5X5XC.&X;X>X>X&X#XC.A.o.m n ^ ~ Z u I I i V W Q b r s f L.I.d.-.@.5X5X5X5X5X5X5X5X5X5X",
"5X5X5X5X5X5XQ.&X1X,X;X>X>X&XR ~.Q C ~ ~ b L b.T.I.b.I y p S S l c C.OX[.B.a.=.@.5X5X5X5X5X5X5X5X",
"5X5X5X5X5XC.>X1X2X,X;X;X>XXXY ~.~ ~ Z u h.[.P.U.'.].R.c.U y p N B C.;X*X#X[.B.a.=.%.5X5X5X5X5X5X",
"5X5X5X5Xh.{.>X2X2X1X,X;X>XoXY J.W V E E. X{.{.W.B.T.`.].T.b.U T T R.;X,X3X*X#X].B.i.=.%.5X5X5X5X",
"5X5X5Xh.R.f.v.&X,X1X,X,X>X{.R V T L.OXOXXXoX{.{.[.E.n.T.'.'.'.Y.`.%X$X*X;X;X%X}.R.I.v.a.3.6.5X5X",
"5X5X1.oXB. XB.f.{.>X,X,X;X&XoXW.XX>X&XXXXXXXoX{.{.[.[.Y.B.`.'.].}.}.%X#X}.m.a.y.y.a.l.m.k.0.7.5X",
";.4.*.].&XB.].|.f.v.&X;X,X;X>X>X&X>X>X&X&XXXXX.X|.{.[.[.E.P.U.R.'.}. X`.a.5 0 a.n.n.a.,.5.$.& 5X",
"- &.5.*.k.OX|.B.#XP.f.W.;X;X&X>X>X>X&X&X&XOXXXXXoX.X|.{.[.R.R.n.B.`.`.p.3 y.z.<.6 , 2.$.= 1 5X5X",
"5X+ +.8.>.-. X&XP.|. Xz.v.*X;X;X;X>X;X>X>X>X&X&X#XXX X X|.W.T.u.0 b.B.5 y.6 X : 2.$.* 1 5X5X5X5X",
"5X5X1 ; ,.3.@.v.&X[.B.&XI.f.[.,X,X3X,X3X,X,X;X-X*X$X$X#X Xx.9 u.g.3 d.9 @ O #.%.* 1 2 5X5X5X5X5X",
"5X5X5X5Xo &.8.;.1.XXOXB. X Xl.c.*X1X,X,X,X,X,X,X3X*X*X%Xg.u.x.3 . u.3 > ; O.& 4 2 5X5X5X5X5X5X5X",
"5X5X5X5X5X+ +.8.,.7 W.&X].Y.>XI.d.|.,X1X1X1X,X1X1X1X&Xx.b.P y.p.f.9 ; w.6.+ 2 5X5X5X5X5X5X5X5X5X",
"5X5X5X5X5X5X1 ; 3.9.#.k.OXOXB.XX Xx.c.*X2X2X2X1X1X3Xc.c.y.z.8 . . O &.6.4 5X5X5X5X5X5X5X5X5X5X5X",
"5X5X5X5X5X5X5X5X= ;.0.>.-. X&XT.'.>XR.f.[.1X4X4X2XY.B.a.f.. . = @.& = 1 5X5X5X5X5X5X5X5X5X5X5X5X",
"5X5X5X5X5X5X5X5X5X+ +.0.9.@.P.OXXXB.OXXXx.c.,X4X}.B.l.a.. = ;.%.* 2 5X5X5X5X5X5X5X5X5X5X5X5X5X5X",
"5X5X5X5X5X5X5X5X5X5X1 $ 5.0.;.i. X&XI.].;XR.f.R.U.n.s.X : 4.O.+ 2 5X5X5X5X5X5X5X5X5X5X5X5X5X5X5X",
"5X5X5X5X5X5X5X5X5X5X5X2 - :.t.5.7 E.&X XB.&X&XP.`.y.o ;.2.- 1 5X5X5X5X5X5X5X5X5X5X5X5X5X5X5X5X5X",
"5X5X5X5X5X5X5X5X5X5X5X5X5X+ +.q.q.#.M.oX&XB.].].<.: 9.%.@ 2 5X5X5X5X5X5X5X5X5X5X5X5X5X5X5X5X5X5X",
"5X5X5X5X5X5X5X5X5X5X5X5X5X5X1 $ 7.r.2.1.|.OXI.8 3.7.; 1 5X5X5X5X5X5X5X5X5X5X5X5X5X5X5X5X5X5X5X5X",
"5X5X5X5X5X5X5X5X5X5X5X5X5X5X5X1 * :.r.e.7 k.;.t.2.o 2 5X5X5X5X5X5X5X5X5X5X5X5X5X5X5X5X5X5X5X5X5X",
"5X5X5X5X5X5X5X5X5X5X5X5X5X5X5X5X5X@ $.e.r.e.e.+.+ 5X5X5X5X5X5X5X5X5X5X5X5X5X5X5X5X5X5X5X5X5X5X5X",
"5X5X5X5X5X5X5X5X5X5X5X5X5X5X5X5X5X5X1 % 7.7.o 2 5X5X5X5X5X5X5X5X5X5X5X5X5X5X5X5X5X5X5X5X5X5X5X5X",
"5X5X5X5X5X5X5X5X5X5X5X5X5X5X5X5X5X5X5X2 o + 5X5X5X5X5X5X5X5X5X5X5X5X5X5X5X5X5X5X5X5X5X5X5X5X5X5X",
"5X5X5X5X5X5X5X5X5X5X5X5X5X5X5X5X5X5X5X5X5X5X5X5X5X5X5X5X5X5X5X5X5X5X5X5X5X5X5X5X5X5X5X5X5X5X5X5X"
};
