/* XPM */
static char *buttonpress[] = {
/* columns rows colors chars-per-pixel */
"26 24 32 1 ",
"  c gray59",
". c #979797",
"X c #989898",
"o c gray60",
"O c #A4A4A4",
"+ c #BCBCBC",
"@ c gray75",
"# c gray77",
"$ c #C6C6C6",
"% c gray78",
"& c #CBCBCB",
"* c #CECECE",
"= c #D2D2D2",
"- c #D5D5D5",
"; c gray84",
": c gray85",
"> c #DADADA",
", c gainsboro",
"< c gray87",
"1 c #DFDFDF",
"2 c gray88",
"3 c #E2E2E2",
"4 c #E6E6E6",
"5 c #EAEAEA",
"6 c #EEEEEE",
"7 c gray95",
"8 c #F4F4F4",
"9 c gray96",
"0 c #F6F6F6",
"q c gray98",
"w c white",
"e c None",
/* pixels */
"ee                      ee",
"e O####################O e",
" O======================O ",
" +======================+ ",
" #======================# ",
" #======================# ",
" #======================# ",
" #======================# ",
" #======================# ",
" #======================# ",
" #======================# ",
" #=====-================# ",
" #:---:--:-:----:---:-:-# ",
" &::,::::::::::,:::,:::,* ",
" *2,,22,,2,22,,2,22,,22,* ",
" =2424224224224224224222= ",
" -4444444444444444444444- ",
" :5555555555555555555555: ",
" ,6666666666666666666666, ",
" 277777777777777777777772 ",
" 200000000000000000000002o",
" #qqqqqqqqqqqqqqqqqqqqqq# ",
"eo-0wwwwwwwwwwwwwwwwww0- e",
"ee  oooooooooooooooooo  ee"
};
