/* XPM */
static char *button_disabled[] = {
/* columns rows colors chars-per-pixel */
"26 24 8 1 ",
"  c gray59",
". c #979797",
"X c #A4A4A4",
"o c #BCBCBC",
"O c gray75",
"+ c gray77",
"@ c #D2D2D2",
"# c None",
/* pixels */
"##                      ##",
"# X+++++++++++++++++++OX #",
" X@@@@@@@@@@@@@@@@@@@@@@X ",
" o@@@@@@@@@@@@@@@@@@@@@@O ",
" +@@@@@@@@@@@@@@@@@@@@@@+ ",
" +@@@@@@@@@@@@@@@@@@@@@@+ ",
" +@@@@@@@@@@@@@@@@@@@@@@+ ",
" +@@@@@@@@@@@@@@@@@@@@@@+ ",
" +@@@@@@@@@@@@@@@@@@@@@@+ ",
" +@@@@@@@@@@@@@@@@@@@@@@+ ",
" +@@@@@@@@@@@@@@@@@@@@@@+ ",
" +@@@@@@@@@@@@@@@@@@@@@@+ ",
" +@@@@@@@@@@@@@@@@@@@@@@+ ",
" +@@@@@@@@@@@@@@@@@@@@@@+ ",
" +@@@@@@@@@@@@@@@@@@@@@@+ ",
" +@@@@@@@@@@@@@@@@@@@@@@+ ",
" +@@@@@@@@@@@@@@@@@@@@@@+ ",
" +@@@@@@@@@@@@@@@@@@@@@@+ ",
" +@@@@@@@@@@@@@@@@@@@@@@+ ",
" +@@@@@@@@@@@@@@@@@@@@@@+ ",
" o@@@@@@@@@@@@@@@@@@@@@@O ",
" X@@@@@@@@@@@@@@@@@@@@@@X ",
"# XO++++++++++++++++++OX #",
"##                      ##"
};
