/* XPM */
static char *button[] = {
/* columns rows colors chars-per-pixel */
"26 24 32 1 ",
"  c gray59",
". c #979797",
"X c #A4A4A4",
"o c #B7B7B7",
"O c gray72",
"+ c #BCBCBC",
"@ c gray75",
"# c gray77",
"$ c gray78",
"% c #CBCBCB",
"& c #CECECE",
"* c #D2D2D2",
"= c #D5D5D5",
"- c gray84",
"; c gray85",
": c #DADADA",
"> c gainsboro",
", c gray87",
"< c #DFDFDF",
"1 c gray88",
"2 c #E2E2E2",
"3 c gray89",
"4 c #E6E6E6",
"5 c #EAEAEA",
"6 c #ECECEC",
"7 c #EEEEEE",
"8 c gray95",
"9 c #F6F6F6",
"0 c gray98",
"q c #FEFEFE",
"w c white",
"e c None",
/* pixels */
"ee                      ee",
"e o<775775775775775775<o e",
" OqqqqqqqqqqqqqqqqqqqqqqO ",
" 300000000000000000000003.",
" 399999999999999999999993 ",
" 388888888888888888888883 ",
" ;7777777777777777777777; ",
" ;5555555555555555555557; ",
" -3353333533353333353333- ",
" -3333333333333333333333* ",
" &<<<<<<<<<<<<3<<<<33<<<& ",
" %;;;;;;;;;;;;;;;;;;;;;;% ",
" #----------------------# ",
" #**********************# ",
" #**********************# ",
" #**********************# ",
" #**********************# ",
" #**********************# ",
" #**********************# ",
" #**********************# ",
".O**********************+ ",
" X**********************X ",
"e X####################X e",
"ee.                     ee"
};
