/* XPM */
static char *buttonhi[] = {
/* columns rows colors chars-per-pixel */
"26 24 32 1 ",
"  c gray39",
". c #646464",
"X c #656565",
"o c gray49",
"O c #7E7E7E",
"+ c gray60",
"@ c #9A9A9A",
"# c #A9A9A9",
"$ c gray69",
"% c #B9B9B9",
"& c gray74",
"* c #C1C1C1",
"= c #C5C5C5",
"- c gray79",
"; c #CDCDCD",
": c #D2D2D2",
"> c gray84",
", c #D7D7D7",
"< c #DADADA",
"1 c gray87",
"2 c #E2E2E2",
"3 c #E6E6E6",
"4 c gray91",
"5 c #E9E9E9",
"6 c #EAEAEA",
"7 c #EEEEEE",
"8 c gray95",
"9 c #F6F6F6",
"0 c gray98",
"q c #FEFEFE",
"w c white",
"e c None",
/* pixels */
"ee..      .     .      .ee",
"e +,555555555555555555<+ e",
".+qqqqqqqqqqqqqqqqqqqqqq+.",
".<0000000000000000000000<.",
".199999999999999999999991.",
".<8888888888888888888888< ",
" ,7778777777777777787777, ",
" :5555557555575555555555: ",
" ;3333333333333333333333; ",
" -2222222222222222222222- ",
" =1111111111111111111111= ",
" *<<<<<<<<<<<<<<<<<<<<<<* ",
" &,,,,:,,,:,,,,,,,:,,,,,& ",
" %::::::::::::::::::::::% ",
" %::::::::::::::::::::::% ",
" %::::::::::::::::::::::% ",
" %::::::::::::::::::::::% ",
" %::::::::::::::::::::::% ",
" %::::::::::::::::::::::% ",
" %::::::::::::::::::::::%.",
".#::::::::::::::::::::::#.",
".o:,::::::::::::::::::::o ",
"e o#%%%%%%%%%%%%%%%%%%$o e",
"ee                   ...ee"
};
