/* XPM */
static char *deepbox[] = {
/* columns rows colors chars-per-pixel */
"32 32 7 1 ",
"  c gray59",
". c #A2A2A2",
"X c gray66",
"o c gray83",
"O c gray88",
"+ c white",
"@ c None",
/* pixels */
"@@                            @@",
"@ XX.XXXXXXXXXXXXXXXXXXXXXXXXX.@",
" XOOOOOOOOOOOOOOOOOOOOOOOOOOOOo.",
" XO+++++++++++++++++++++++++++o.",
" XO+++++++++++++++++++++++++++o.",
" XO+++++++++++++++++++++++++++o.",
" XO+++++++++++++++++++++++++++o.",
" XO+++++++++++++++++++++++++++o.",
" XO+++++++++++++++++++++++++++o.",
" XO+++++++++++++++++++++++++++o.",
" XO+++++++++++++++++++++++++++o.",
" XO+++++++++++++++++++++++++++o.",
" XO+++++++++++++++++++++++++++o.",
" XO+++++++++++++++++++++++++++o.",
" XO+++++++++++++++++++++++++++o.",
" XO+++++++++++++++++++++++++++o.",
" XO+++++++++++++++++++++++++++o.",
" XO+++++++++++++++++++++++++++o.",
" XO+++++++++++++++++++++++++++o.",
" XO+++++++++++++++++++++++++++o.",
" .O+++++++++++++++++++++++++++o.",
" .O+++++++++++++++++++++++++++o.",
" .O+++++++++++++++++++++++++++o.",
" .O+++++++++++++++++++++++++++o.",
" .O+++++++++++++++++++++++++++o.",
" .O+++++++++++++++++++++++++++o.",
" .O+++++++++++++++++++++++++++o.",
" .O+++++++++++++++++++++++++++o.",
" .O+++++++++++++++++++++++++++o.",
" .O+++++++++++++++++++++++++++o.",
"@.oooooooooooooooooooooooooooo.@",
"@@............................@@"
};
