/* XPM */
static char *hscroll_right_pressed[] = {
/* columns rows colors chars-per-pixel */
"12 12 26 1 ",
"  c black",
". c #090909",
"X c #161616",
"o c #191919",
"O c gray15",
"+ c #353535",
"@ c #5D5D5D",
"# c #626262",
"$ c #989898",
"% c gray61",
"& c #A0A0A0",
"* c gray66",
"= c #ACACAC",
"- c #B2B2B2",
"; c #BBBBBB",
": c gray75",
"> c #C5C5C5",
", c #C8C8C8",
"< c gray81",
"1 c #D2D2D2",
"2 c gray84",
"3 c gray87",
"4 c #E6E6E6",
"5 c #E9E9E9",
"6 c #EEEEEE",
"7 c #F6F6F6",
/* pixels */
"&*****=-;:>*",
"*11>11234673",
"*11#@<234675",
"*11# +>34675",
"*11#  o-4675",
"*11#   .,675",
"*21#  .%4675",
"*11# X=34674",
"*11#O;234675",
"*21$,1234675",
"*11121234673",
"&*****=-;:>*"
};
