/* XPM */
static char *hscroll_right_default[] = {
/* columns rows colors chars-per-pixel */
"12 12 26 1 ",
"  c black",
". c gray7",
"X c #181818",
"o c #232323",
"O c gray23",
"+ c #5B5B5B",
"@ c #646464",
"# c #989898",
"$ c #A0A0A0",
"% c #A7A7A7",
"& c #ACACAC",
"* c #B2B2B2",
"= c #B7B7B7",
"- c #B9B9B9",
"; c gray74",
": c #C1C1C1",
"> c gray77",
", c gray79",
"< c #D2D2D2",
"1 c LightGray",
"2 c #DADADA",
"3 c gray87",
"4 c #E6E6E6",
"5 c #EEEEEE",
"6 c #F6F6F6",
"7 c white",
/* pixels */
"$>>:-*&&&&%#",
";76543<<<<<%",
",76>#31<<<,&",
",76- @1<<11%",
",76-  O:<<<&",
",76-   X&<<%",
",76-   .$<<%",
",76-  o-<<<%",
",76- O,<<<<&",
",76-+2<1<<<&",
";76443<<<<<%",
"$>>:-*&&&&&#"
};
