/* XPM */
static char *hscroll_left_pressed[] = {
/* columns rows colors chars-per-pixel */
"12 12 26 1 ",
"  c black",
". c #090909",
"X c #161616",
"o c #191919",
"O c gray15",
"+ c #353535",
"@ c #5D5D5D",
"# c #626262",
"$ c #989898",
"% c gray61",
"& c #A0A0A0",
"* c gray66",
"= c gray68",
"- c #B2B2B2",
"; c #B9B9B9",
": c gray75",
"> c #C5C5C5",
", c #C8C8C8",
"< c #CBCBCB",
"1 c #D2D2D2",
"2 c gray84",
"3 c #DDDDDD",
"4 c #E6E6E6",
"5 c #E9E9E9",
"6 c #EEEEEE",
"7 c #F6F6F6",
/* pixels */
"*>:;-=*****%",
"37643211>11*",
"5764321@#11=",
"57643>+ #11*",
"5764-o  #11*",
"576<.   #11*",
"5764%.  #11*",
"57643=X #11*",
"576432;O#11*",
"5764321<$11*",
"37643311121*",
"*>>;-******%"
};
