/* XPM */
static char *vscroll_grey[] = {
/* columns rows colors chars-per-pixel */
"11 19 26 1 ",
"  c gray40",
". c gray60",
"X c #D5D5D5",
"o c gray84",
"O c #D7D7D7",
"+ c #D8D8D8",
"@ c #DADADA",
"# c gray86",
"$ c gainsboro",
"% c #DDDDDD",
"& c gray87",
"* c #DFDFDF",
"= c gray88",
"- c #E1E1E1",
"; c #E2E2E2",
": c gray89",
"> c #E4E4E4",
", c gray90",
"< c #E6E6E6",
"1 c #E7E7E7",
"2 c #E9E9E9",
"3 c gray92",
"4 c #ECECEC",
"5 c #EFEFEF",
"6 c white",
"7 c None",
/* pixels */
"777.....777",
"7..66666..7",
"7.6     6.7",
".6  544..6 ",
".6 44333.6 ",
".6 <<<<-.6 ",
".6 %%---.6 ",
".6 +%-3<.6 ",
".6 O%-<<.6 ",
".6 O++%%.6 ",
".6 %%%++.6 ",
".6 <-%+O.6 ",
".6 -<-%%.6 ",
".6 -----.6 ",
".6 ----%.6 ",
".6 .<%O..6 ",
"7 6.....6 7",
"7  66666  7",
"777     777"
};
