/* XPM */
static char *vscroll_up_pressed[] = {
/* columns rows colors chars-per-pixel */
"12 12 25 1 ",
"  c black",
". c gray4",
"X c #0C0C0C",
"o c gray9",
"O c #232323",
"+ c #484848",
"@ c #797979",
"# c gray56",
"$ c #939393",
"% c #959595",
"& c #A0A0A0",
"* c gray66",
"= c #AEAEAE",
"- c gray70",
"; c #B9B9B9",
": c gray75",
"> c #C5C5C5",
", c #CBCBCB",
"< c #D2D2D2",
"1 c gray84",
"2 c gray87",
"3 c #E6E6E6",
"4 c #E9E9E9",
"5 c #EEEEEE",
"6 c #F6F6F6",
/* pixels */
"&**********&",
"*<<<1<<1<<<*",
"*<<<<<<<<<<=",
"*<<<<&<<<<<*",
"*<<<% @<<<<*",
"*<<-.  %<<<*",
"=1,O   X=11*",
"-2+     o>2-",
";<$######-3;",
":5555555555:",
">6666666666>",
"*2434444442*"
};
