/* XPM */
static char *vscroll_down_default[] = {
/* columns rows colors chars-per-pixel */
"12 12 28 1 ",
"  c black",
". c gray7",
"X c #181818",
"o c #232323",
"O c #373737",
"+ c gray23",
"@ c #5B5B5B",
"# c #646464",
"$ c #989898",
"% c #A0A0A0",
"& c #A7A7A7",
"* c #A9A9A9",
"= c #ACACAC",
"- c #B2B2B2",
"; c #B7B7B7",
": c #B9B9B9",
"> c gray74",
", c #C1C1C1",
"< c gray77",
"1 c gray79",
"2 c #D2D2D2",
"3 c gray84",
"4 c #DADADA",
"5 c gray87",
"6 c #E7E7E7",
"7 c #EEEEEE",
"8 c #F6F6F6",
"9 c white",
/* pixels */
"%>11111111>%",
"<9999999999<",
"<8888888888<",
",7,:::::::6,",
":6$      @6:",
"-55#    +45-",
"=332O  o133*",
"*222,X.;222*",
"*2222&%2222*",
"*2222232222*",
"&2222222222&",
"%**********%"
};
