/* XPM */
static char *vscroll_down_pressed[] = {
/* columns rows colors chars-per-pixel */
"12 12 26 1 ",
"  c black",
". c gray4",
"X c #161616",
"o c #191919",
"O c gray15",
"+ c #353535",
"@ c #5D5D5D",
"# c #626262",
"$ c #989898",
"% c gray61",
"& c #A0A0A0",
"* c gray66",
"= c gray68",
"- c #B2B2B2",
"; c #B9B9B9",
": c gray75",
"> c #C5C5C5",
", c #CBCBCB",
"< c gray81",
"1 c #D2D2D2",
"2 c gray84",
"3 c gray87",
"4 c #E6E6E6",
"5 c #E9E9E9",
"6 c #EEEEEE",
"7 c #F6F6F6",
/* pixels */
"&**********%",
"*1111111112*",
"*1111111112*",
"*>#######$1*",
"*1@     O>1*",
"*1<+   X:11*",
"=22>o .=222*",
"-333-.%3333-",
";4444,44444;",
">5666666666:",
">7777777777>",
"*3555555553*"
};
