/* XPM */
static char *vscroll_up_default[] = {
/* columns rows colors chars-per-pixel */
"12 12 26 1 ",
"  c black",
". c gray5",
"X c #161616",
"o c #232323",
"O c #444444",
"+ c gray51",
"@ c gray52",
"# c #9D9D9D",
"$ c #A0A0A0",
"% c gray66",
"& c #A9A9A9",
"* c #ACACAC",
"= c #B2B2B2",
"- c #B6B6B6",
"; c #BBBBBB",
": c gray74",
"> c #C0C0C0",
", c gray77",
"< c gray79",
"1 c #D2D2D2",
"2 c gray84",
"3 c gray87",
"4 c #E6E6E6",
"5 c #EEEEEE",
"6 c #F6F6F6",
"7 c white",
/* pixels */
"$:<<<<<<,<:$",
",7777777777,",
",6666666666,",
">5555-55556:",
";444$ @4444;",
"=33:.  #333=",
"*2<o   .*22&",
"&1O     X:1&",
"&>+++++++%1%",
"&1111111111&",
"&1111111111%",
"#&&&&&&&&&&#"
};
